{
    "asset" : {
        "generator" : "Khronos glTF Blender I/O v3.2.40",
        "version" : "2.0"
    },
    "scene" : 0,
    "scenes" : [
        {
            "name" : "Scene",
            "nodes" : [
                0,
                1,
                2,
                3,
                4,
                5,
                6
            ]
        }
    ],
    "nodes" : [
        {
            "name" : "Empty.001",
            "translation" : [
                -0.5836330056190491,
                3.062769889831543,
                0.2549560070037842
            ]
        },
        {
            "mesh" : 0,
            "name" : "Man_Simple",
            "rotation" : [
                0.7071068286895752,
                0,
                0,
                0.7071067094802856
            ],
            "scale" : [
                0.05814032256603241,
                0.05814032256603241,
                0.05814032256603241
            ]
        },
        {
            "mesh" : 1,
            "name" : "right leg",
            "rotation" : [
                0.7071068286895752,
                0,
                0,
                0.7071067094802856
            ],
            "scale" : [
                0.05814032256603241,
                0.05814032256603241,
                0.05814032256603241
            ],
            "translation" : [
                -0.9423783421516418,
                3.1493258476257324,
                0.2549560070037842
            ]
        },
        {
            "mesh" : 2,
            "name" : "Left leg.001",
            "rotation" : [
                0.7071068286895752,
                0,
                0,
                0.7071067094802856
            ],
            "scale" : [
                0.05814032256603241,
                0.05814032256603241,
                0.05814032256603241
            ],
            "translation" : [
                0.9578441977500916,
                3.0841822624206543,
                0.2514669895172119
            ]
        },
        {
            "name" : "Empty",
            "rotation" : [
                0,
                0.7071068286895752,
                0,
                0.7071068286895752
            ],
            "translation" : [
                0.5875059962272644,
                2.9939000606536865,
                0.2514669895172119
            ]
        },
        {
            "mesh" : 3,
            "name" : "Man_Simple.001",
            "rotation" : [
                0.7071068286895752,
                0,
                0,
                0.7071067094802856
            ],
            "scale" : [
                0.05814032256603241,
                0.05814032256603241,
                0.05814032256603241
            ],
            "translation" : [
                0.09292802959680557,
                0.07471709698438644,
                0
            ]
        },
        {
            "mesh" : 4,
            "name" : "Man_Simple.002",
            "rotation" : [
                0.7071068286895752,
                0,
                0,
                0.7071067094802856
            ],
            "scale" : [
                0.05814032256603241,
                0.05814032256603241,
                0.05814032256603241
            ],
            "translation" : [
                -0.06395453214645386,
                0.054399922490119934,
                0
            ]
        }
    ],
    "materials" : [
        {
            "doubleSided" : true,
            "name" : "Default OBJ",
            "pbrMetallicRoughness" : {
                "baseColorFactor" : [
                    0.7324793934822083,
                    0.49673721194267273,
                    0.31643205881118774,
                    1
                ],
                "metallicFactor" : 0,
                "roughnessFactor" : 0.5
            }
        }
    ],
    "meshes" : [
        {
            "name" : "BaseMesh_Man_Simple",
            "primitives" : [
                {
                    "attributes" : {
                        "POSITION" : 0,
                        "NORMAL" : 1,
                        "TEXCOORD_0" : 2
                    },
                    "indices" : 3,
                    "material" : 0
                }
            ]
        },
        {
            "name" : "BaseMesh_Man_Simple.001",
            "primitives" : [
                {
                    "attributes" : {
                        "POSITION" : 4,
                        "NORMAL" : 5,
                        "TEXCOORD_0" : 6
                    },
                    "indices" : 7,
                    "material" : 0
                }
            ]
        },
        {
            "name" : "BaseMesh_Man_Simple.003",
            "primitives" : [
                {
                    "attributes" : {
                        "POSITION" : 8,
                        "NORMAL" : 9,
                        "TEXCOORD_0" : 10
                    },
                    "indices" : 11,
                    "material" : 0
                }
            ]
        },
        {
            "name" : "BaseMesh_Man_Simple.002",
            "primitives" : [
                {
                    "attributes" : {
                        "POSITION" : 12,
                        "NORMAL" : 13,
                        "TEXCOORD_0" : 14
                    },
                    "indices" : 15,
                    "material" : 0
                }
            ]
        },
        {
            "name" : "BaseMesh_Man_Simple.005",
            "primitives" : [
                {
                    "attributes" : {
                        "POSITION" : 16,
                        "NORMAL" : 17,
                        "TEXCOORD_0" : 18
                    },
                    "indices" : 19,
                    "material" : 0
                }
            ]
        }
    ],
    "accessors" : [
        {
            "bufferView" : 0,
            "componentType" : 5126,
            "count" : 16116,
            "max" : [
                88.97066497802734,
                18.61687469482422,
                -0.287227988243103
            ],
            "min" : [
                -88.97066497802734,
                -10.629721641540527,
                -178.83473205566406
            ],
            "type" : "VEC3"
        },
        {
            "bufferView" : 1,
            "componentType" : 5126,
            "count" : 16116,
            "type" : "VEC3"
        },
        {
            "bufferView" : 2,
            "componentType" : 5126,
            "count" : 16116,
            "type" : "VEC2"
        },
        {
            "bufferView" : 3,
            "componentType" : 5123,
            "count" : 24174,
            "type" : "SCALAR"
        },
        {
            "bufferView" : 4,
            "componentType" : 5126,
            "count" : 560,
            "max" : [
                14.141624450683594,
                10.480204582214355,
                43.078006744384766
            ],
            "min" : [
                -5.805846214294434,
                -7.47858190536499,
                -40.22013854980469
            ],
            "type" : "VEC3"
        },
        {
            "bufferView" : 5,
            "componentType" : 5126,
            "count" : 560,
            "type" : "VEC3"
        },
        {
            "bufferView" : 6,
            "componentType" : 5126,
            "count" : 560,
            "type" : "VEC2"
        },
        {
            "bufferView" : 7,
            "componentType" : 5123,
            "count" : 840,
            "type" : "SCALAR"
        },
        {
            "bufferView" : 8,
            "componentType" : 5126,
            "count" : 560,
            "max" : [
                5.649785995483398,
                10.540205955505371,
                41.93130874633789
            ],
            "min" : [
                -14.625112533569336,
                -7.418580532073975,
                -41.531795501708984
            ],
            "type" : "VEC3"
        },
        {
            "bufferView" : 9,
            "componentType" : 5126,
            "count" : 560,
            "type" : "VEC3"
        },
        {
            "bufferView" : 10,
            "componentType" : 5126,
            "count" : 560,
            "type" : "VEC2"
        },
        {
            "bufferView" : 11,
            "componentType" : 5123,
            "count" : 840,
            "type" : "SCALAR"
        },
        {
            "bufferView" : 12,
            "componentType" : 5126,
            "count" : 2240,
            "max" : [
                -6.5295491218566895,
                20.777055740356445,
                0.20641300082206726
            ],
            "min" : [
                -17.118112564086914,
                -4.556146144866943,
                -12.428860664367676
            ],
            "type" : "VEC3"
        },
        {
            "bufferView" : 13,
            "componentType" : 5126,
            "count" : 2240,
            "type" : "VEC3"
        },
        {
            "bufferView" : 14,
            "componentType" : 5126,
            "count" : 2240,
            "type" : "VEC2"
        },
        {
            "bufferView" : 15,
            "componentType" : 5123,
            "count" : 3360,
            "type" : "SCALAR"
        },
        {
            "bufferView" : 16,
            "componentType" : 5126,
            "count" : 2204,
            "max" : [
                17.118112564086914,
                20.777055740356445,
                0.20641300082206726
            ],
            "min" : [
                6.5295491218566895,
                -4.556146144866943,
                -12.428860664367676
            ],
            "type" : "VEC3"
        },
        {
            "bufferView" : 17,
            "componentType" : 5126,
            "count" : 2204,
            "type" : "VEC3"
        },
        {
            "bufferView" : 18,
            "componentType" : 5126,
            "count" : 2204,
            "type" : "VEC2"
        },
        {
            "bufferView" : 19,
            "componentType" : 5123,
            "count" : 3306,
            "type" : "SCALAR"
        }
    ],
    "bufferViews" : [
        {
            "buffer" : 0,
            "byteLength" : 193392,
            "byteOffset" : 0
        },
        {
            "buffer" : 0,
            "byteLength" : 193392,
            "byteOffset" : 193392
        },
        {
            "buffer" : 0,
            "byteLength" : 128928,
            "byteOffset" : 386784
        },
        {
            "buffer" : 0,
            "byteLength" : 48348,
            "byteOffset" : 515712
        },
        {
            "buffer" : 0,
            "byteLength" : 6720,
            "byteOffset" : 564060
        },
        {
            "buffer" : 0,
            "byteLength" : 6720,
            "byteOffset" : 570780
        },
        {
            "buffer" : 0,
            "byteLength" : 4480,
            "byteOffset" : 577500
        },
        {
            "buffer" : 0,
            "byteLength" : 1680,
            "byteOffset" : 581980
        },
        {
            "buffer" : 0,
            "byteLength" : 6720,
            "byteOffset" : 583660
        },
        {
            "buffer" : 0,
            "byteLength" : 6720,
            "byteOffset" : 590380
        },
        {
            "buffer" : 0,
            "byteLength" : 4480,
            "byteOffset" : 597100
        },
        {
            "buffer" : 0,
            "byteLength" : 1680,
            "byteOffset" : 601580
        },
        {
            "buffer" : 0,
            "byteLength" : 26880,
            "byteOffset" : 603260
        },
        {
            "buffer" : 0,
            "byteLength" : 26880,
            "byteOffset" : 630140
        },
        {
            "buffer" : 0,
            "byteLength" : 17920,
            "byteOffset" : 657020
        },
        {
            "buffer" : 0,
            "byteLength" : 6720,
            "byteOffset" : 674940
        },
        {
            "buffer" : 0,
            "byteLength" : 26448,
            "byteOffset" : 681660
        },
        {
            "buffer" : 0,
            "byteLength" : 26448,
            "byteOffset" : 708108
        },
        {
            "buffer" : 0,
            "byteLength" : 17632,
            "byteOffset" : 734556
        },
        {
            "buffer" : 0,
            "byteLength" : 6612,
            "byteOffset" : 752188
        }
    ],
    "buffers" : [
        {
            "byteLength" : 758800,
            "uri" : "data:application/octet-stream;base64,"
        }
    ]
}
