{
    "asset" : {
        "generator" : "Khronos glTF Blender I/O v3.2.40",
        "version" : "2.0"
    },
    "scene" : 0,
    "scenes" : [
        {
            "name" : "Scene",
            "nodes" : [
                0
            ]
        }
    ],
    "nodes" : [
        {
            "mesh" : 0,
            "name" : "Sphere",
            "scale" : [
                6.258529186248779,
                6.722758769989014,
                7.295712471008301
            ],
            "translation" : [
                0,
                17.749975204467773,
                0.053879737854003906
            ]
        }
    ],
    "materials" : [
        {
            "doubleSided" : true,
            "name" : "Material.001",
            "pbrMetallicRoughness" : {
                "baseColorFactor" : [
                    0.052965711802244186,
                    0.20230241119861603,
                    0.6165856122970581,
                    1
                ],
                "metallicFactor" : 0,
                "roughnessFactor" : 0.4000000059604645
            }
        },
        {
            "doubleSided" : true,
            "name" : "Material.002",
            "pbrMetallicRoughness" : {
                "baseColorFactor" : [
                    0.036436982452869415,
                    0.6849020719528198,
                    0.8000000715255737,
                    1
                ],
                "metallicFactor" : 0,
                "roughnessFactor" : 0.4000000059604645
            }
        },
        {
            "doubleSided" : true,
            "name" : "Material.004",
            "pbrMetallicRoughness" : {
                "baseColorFactor" : [
                    0.06925173848867416,
                    0.09285290539264679,
                    0.09187699109315872,
                    1
                ],
                "metallicFactor" : 0,
                "roughnessFactor" : 0.4000000059604645
            }
        },
        {
            "doubleSided" : true,
            "name" : "Material.003",
            "pbrMetallicRoughness" : {
                "baseColorFactor" : [
                    0.8000000715255737,
                    0.004697986878454685,
                    0.006204081699252129,
                    1
                ],
                "metallicFactor" : 0,
                "roughnessFactor" : 0.4000000059604645
            }
        }
    ],
    "meshes" : [
        {
            "name" : "Sphere",
            "primitives" : [
                {
                    "attributes" : {
                        "POSITION" : 0,
                        "NORMAL" : 1,
                        "TEXCOORD_0" : 2
                    },
                    "indices" : 3,
                    "material" : 0
                },
                {
                    "attributes" : {
                        "POSITION" : 4,
                        "NORMAL" : 5,
                        "TEXCOORD_0" : 6
                    },
                    "indices" : 7,
                    "material" : 1
                },
                {
                    "attributes" : {
                        "POSITION" : 8,
                        "NORMAL" : 9,
                        "TEXCOORD_0" : 10
                    },
                    "indices" : 11,
                    "material" : 2
                },
                {
                    "attributes" : {
                        "POSITION" : 12,
                        "NORMAL" : 13,
                        "TEXCOORD_0" : 14
                    },
                    "indices" : 15,
                    "material" : 3
                }
            ]
        }
    ],
    "accessors" : [
        {
            "bufferView" : 0,
            "componentType" : 5126,
            "count" : 2176,
            "max" : [
                0.9999996423721313,
                1,
                0.9999994039535522
            ],
            "min" : [
                -0.9999989867210388,
                -0.11831177771091461,
                -0.9999987483024597
            ],
            "type" : "VEC3"
        },
        {
            "bufferView" : 1,
            "componentType" : 5126,
            "count" : 2176,
            "type" : "VEC3"
        },
        {
            "bufferView" : 2,
            "componentType" : 5126,
            "count" : 2176,
            "type" : "VEC2"
        },
        {
            "bufferView" : 3,
            "componentType" : 5123,
            "count" : 3264,
            "type" : "SCALAR"
        },
        {
            "bufferView" : 4,
            "componentType" : 5126,
            "count" : 1984,
            "max" : [
                0.12456141412258148,
                1.145155906677246,
                0.1093827486038208
            ],
            "min" : [
                -0.12456133216619492,
                0.9627957344055176,
                -0.10938268154859543
            ],
            "type" : "VEC3"
        },
        {
            "bufferView" : 5,
            "componentType" : 5126,
            "count" : 1984,
            "type" : "VEC3"
        },
        {
            "bufferView" : 6,
            "componentType" : 5126,
            "count" : 1984,
            "type" : "VEC2"
        },
        {
            "bufferView" : 7,
            "componentType" : 5123,
            "count" : 2880,
            "type" : "SCALAR"
        },
        {
            "bufferView" : 8,
            "componentType" : 5126,
            "count" : 192,
            "max" : [
                0.060614023357629776,
                1.0061631202697754,
                0.05476102605462074
            ],
            "min" : [
                -0.060614023357629776,
                -2.718970775604248,
                -0.05476102605462074
            ],
            "type" : "VEC3"
        },
        {
            "bufferView" : 9,
            "componentType" : 5126,
            "count" : 192,
            "type" : "VEC3"
        },
        {
            "bufferView" : 10,
            "componentType" : 5126,
            "count" : 192,
            "type" : "VEC2"
        },
        {
            "bufferView" : 11,
            "componentType" : 5123,
            "count" : 372,
            "type" : "SCALAR"
        },
        {
            "bufferView" : 12,
            "componentType" : 5126,
            "count" : 1984,
            "max" : [
                0.1956140697002411,
                -2.5067949295043945,
                0.13446412980556488
            ],
            "min" : [
                -0.19561393558979034,
                -2.8652806282043457,
                -0.13446404039859772
            ],
            "type" : "VEC3"
        },
        {
            "bufferView" : 13,
            "componentType" : 5126,
            "count" : 1984,
            "type" : "VEC3"
        },
        {
            "bufferView" : 14,
            "componentType" : 5126,
            "count" : 1984,
            "type" : "VEC2"
        },
        {
            "bufferView" : 15,
            "componentType" : 5123,
            "count" : 2880,
            "type" : "SCALAR"
        }
    ],
    "bufferViews" : [
        {
            "buffer" : 0,
            "byteLength" : 26112,
            "byteOffset" : 0
        },
        {
            "buffer" : 0,
            "byteLength" : 26112,
            "byteOffset" : 26112
        },
        {
            "buffer" : 0,
            "byteLength" : 17408,
            "byteOffset" : 52224
        },
        {
            "buffer" : 0,
            "byteLength" : 6528,
            "byteOffset" : 69632
        },
        {
            "buffer" : 0,
            "byteLength" : 23808,
            "byteOffset" : 76160
        },
        {
            "buffer" : 0,
            "byteLength" : 23808,
            "byteOffset" : 99968
        },
        {
            "buffer" : 0,
            "byteLength" : 15872,
            "byteOffset" : 123776
        },
        {
            "buffer" : 0,
            "byteLength" : 5760,
            "byteOffset" : 139648
        },
        {
            "buffer" : 0,
            "byteLength" : 2304,
            "byteOffset" : 145408
        },
        {
            "buffer" : 0,
            "byteLength" : 2304,
            "byteOffset" : 147712
        },
        {
            "buffer" : 0,
            "byteLength" : 1536,
            "byteOffset" : 150016
        },
        {
            "buffer" : 0,
            "byteLength" : 744,
            "byteOffset" : 151552
        },
        {
            "buffer" : 0,
            "byteLength" : 23808,
            "byteOffset" : 152296
        },
        {
            "buffer" : 0,
            "byteLength" : 23808,
            "byteOffset" : 176104
        },
        {
            "buffer" : 0,
            "byteLength" : 15872,
            "byteOffset" : 199912
        },
        {
            "buffer" : 0,
            "byteLength" : 5760,
            "byteOffset" : 215784
        }
    ],
    "buffers" : [
        {
            "byteLength" : 221544,
            "uri" : "data:application/octet-stream;base64,"
        }
    ]
}
